/* XPM */
static char *phone[] = {
/* width height num_colors chars_per_pixel */
"    32    32        5            1",
/* colors */
". c #0a6464",
"# c #3ccccc",
"a c #9ee9ed",
"b c None",
"c c #c4f4ef",
/* pixels */
"bbbbbbbbbbbbbbbbbbbbbbbbbbbbbbbb",
"bbbbbbbbbbbbbbbbbbbbbbbbbbbbbbbb",
"bbbbbbbbb......bbbbbbbbbbbbbbbbb",
"bbbbbbb..#ccca#...bbbbbbbbbbbbbb",
"bbbbbb.#cccccccca#...bbbbbbbbbbb",
"bbbbb.#ccca###acccca#..bbbbbbbbb",
"bbbb.#ccca##c#.cccccca#..bbbbbbb",
"bbbb..cca###ca.accccccca#..bbbbb",
"bbbb.c..#..#ca.##a###cccca#.bbbb",
"bbbb.ca#.#ccca..###c#.cccca#.bbb",
"bbbbb.#.#cccccc#..#ca.ccccca#.bb",
"bbbbbb.#ca#..aacc#.ca..ccccca#.b",
"bbbbb.#c..ccc..#cccca.#.acccca#.",
"bbbb.#c#cc#.#cc#acccc#a.caccaa#.",
"bbb.#ca..c.#.c..#ccccaa.ccaa###.",
"bb.#ccaccc#.#caa.cccca..ccaa###.",
"b.#ccca..cccc..#.ccca#..ccaa###.",
".#ccccc.aa..aa#.acca##.c.caa##..",
".aaccccc.####..acca###.ca.....#.",
".aaaacccca...#acca#####.acaa###.",
".aaaaaaccccccccca######..caa##.b",
".aaaaaaaacccccca########......bb",
"..aaaaaaaaaccca##########..bbbbb",
"bb..aaaaaaaaaa#########..bbbbbbb",
"bbbb..aaaaaaa########..bbbbbbbbb",
"bbbbbb..aaaaa######..bbbbbbbbbbb",
"bbbbbbbb..aaa####..bbbbbbbbbbbbb",
"bbbbbbbbbb..a##..bbbbbbbbbbbbbbb",
"bbbbbbbbbbbb...bbbbbbbbbbbbbbbbb",
"bbbbbbbbbbbbbbbbbbbbbbbbbbbbbbbb",
"bbbbbbbbbbbbbbbbbbbbbbbbbbbbbbbb",
"bbbbbbbbbbbbbbbbbbbbbbbbbbbbbbbb"
};
